<svg xmlns="http://www.w3.org/2000/svg" version="1.1" viewBox="-5.0 -10.0 110.0 135.0">
 <g>
  <path d="m54.688 20.312c-2.5859 0-4.6875 2.1016-4.6875 4.6875v25c0 1.25 0.48828 2.4297 1.375 3.3125l14.062 14.062c0.88281 0.88281 2.0625 1.375 3.3125 1.375 1.2539 0 2.4297-0.48828 3.3125-1.375 0.88672-0.88281 1.375-2.0625 1.375-3.3125 0-1.2539-0.48828-2.4297-1.375-3.3125l-12.688-12.688v-23.059c0-2.5859-2.1016-4.6875-4.6875-4.6875z"/>
  <path d="m87.836 16.852c-8.8516-8.8516-20.625-13.73-33.148-13.73s-24.293 4.875-33.148 13.73c-8.4844 8.4844-13.316 19.648-13.703 31.586h-6.2734c-0.61328 0-1.1719 0.35938-1.4219 0.91797-0.25391 0.55859-0.15625 1.2109 0.24609 1.6719l10.938 12.5c0.29688 0.33984 0.72656 0.53125 1.1758 0.53125s0.87891-0.19531 1.1758-0.53125l10.938-12.5c0.40234-0.46094 0.5-1.1172 0.24609-1.6719-0.25391-0.55859-0.8125-0.91797-1.4219-0.91797h-6.2188c0.82031-19.953 17.312-35.938 37.469-35.938s37.5 16.82 37.5 37.5-16.82 37.5-37.5 37.5c-10.016 0-19.434-3.8984-26.52-10.984-0.88281-0.88281-2.0625-1.375-3.3125-1.375s-2.4297 0.48828-3.3125 1.375c-0.88281 0.88281-1.375 2.0625-1.375 3.3125 0 1.2539 0.48828 2.4297 1.375 3.3125 8.8516 8.8516 20.625 13.73 33.148 13.73 12.523 0 24.293-4.875 33.148-13.73 8.8516-8.8516 13.73-20.625 13.73-33.148 0-12.52-4.875-24.293-13.73-33.148z"/>
 </g>
</svg>