<svg xmlns="http://www.w3.org/2000/svg" data-name="Layer 1" viewBox="0 0 100 125" x="0px" y="0px"><path d="M49.45,71.08c9.27-7.44,17.86-15.65,25.76-24.61,.37-.41,.72-.85,1.04-1.31,.32-.46,.6-.94,.85-1.44,.25-.5,.47-1.02,.66-1.55,.18-.53,.33-1.07,.44-1.62,.11-.55,.19-1.11,.22-1.67,.04-.56,.04-1.12,0-1.69-.04-.56-.11-1.12-.22-1.67-.11-.55-.26-1.09-.44-1.62-.22-.66-.48-1.3-.78-1.92s-.64-1.23-1.01-1.8c-.38-.58-.78-1.13-1.23-1.66-.44-.52-.92-1.02-1.43-1.48-.51-.46-1.04-.89-1.6-1.28-.56-.39-1.14-.74-1.75-1.06-.6-.31-1.23-.59-1.86-.82-.64-.23-1.29-.42-1.95-.56-3.72-.71-9.23-.2-14.72,6.54l-1.98,2.36-1.99-2.36c-4.37-5.39-8.76-6.74-12.23-6.74-.84,0-1.67,.08-2.49,.24-.66,.14-1.31,.33-1.95,.56-.64,.23-1.26,.5-1.86,.81-.6,.31-1.18,.66-1.74,1.05-.56,.39-1.09,.81-1.6,1.27-.51,.46-.98,.95-1.43,1.47s-.85,1.07-1.23,1.65c-.38,.58-.71,1.18-1.01,1.8s-.56,1.26-.78,1.92c-.18,.53-.33,1.07-.44,1.63s-.18,1.11-.22,1.67c-.03,.56-.03,1.12,0,1.69,.04,.56,.12,1.12,.23,1.67,.12,.55,.27,1.09,.45,1.62,.19,.53,.41,1.04,.67,1.54,.26,.5,.54,.98,.86,1.43,.32,.46,.67,.89,1.05,1.3,7.88,8.97,16.44,17.17,25.7,24.62Z"/></svg>