<svg xmlns="http://www.w3.org/2000/svg" version="1.1" viewBox="-5.0 -10.0 110.0 135.0">
 <path d="m45.078 19.672-7.5781 13.141h-6.6719l9.25-16.031zm4.6875-8.125-3.1094 5.4062-6.3594-3.6719c-0.75-0.42188-1.7031-0.17188-2.1406 0.57812l-10.938 18.953h-7.2188l14.312-24.781c0.625-1.0938 1.625-1.8594 2.8438-2.1875 1.2031-0.32812 2.4688-0.15625 3.5469 0.46875zm12 4.2344-9.8281 17.031h25.25l3.5156-6.0938zm-46.141 7.6562c-6.0312 0-10.938 4.9062-10.938 10.938v1.7344c1.9844-2.0312 4.75-3.2969 7.8125-3.2969h3.8906l5.4219-9.375zm75.547 3.9062-3.1719 5.5c-0.15625-0.03125-0.32812-0.03125-0.5-0.03125h-6.7188l3.4062-5.8906c0.4375-0.75 0.1875-1.7031-0.5625-2.125l-21.656-12.5c-0.35938-0.21875-0.78125-0.26562-1.1875-0.15625-0.39062 0.09375-0.73438 0.35938-0.95312 0.71875l-11.516 19.953h-7.2188l14.891-25.781c0.625-1.0781 1.6406-1.8594 2.8438-2.1875 1.2188-0.3125 2.4688-0.15625 3.5625 0.46875l27.062 15.625c1.0781 0.625 1.8594 1.6406 2.1875 2.8438 0.3125 1.2188 0.15625 2.4844-0.46875 3.5625zm-14.609 39.844c0.86328 0 1.5625-0.69922 1.5625-1.5625s-0.69922-1.5625-1.5625-1.5625-1.5625 0.69922-1.5625 1.5625 0.69922 1.5625 1.5625 1.5625zm-7.8125-9.375h26.562v15.625h-26.562c-0.86328 0-1.5625-0.69922-1.5625-1.5625v-12.5c0-0.86328 0.69922-1.5625 1.5625-1.5625zm3.125 7.8125c0 2.5859 2.1016 4.6875 4.6875 4.6875s4.6875-2.1016 4.6875-4.6875-2.1016-4.6875-4.6875-4.6875-4.6875 2.1016-4.6875 4.6875zm-3.125 10.938c-2.5859 0-4.6875-2.1016-4.6875-4.6875v-12.5c0-2.5859 2.1016-4.6875 4.6875-4.6875h26.562v-10.938c0-4.3086-3.5039-7.8125-7.8125-7.8125h-75c-4.3086 0-7.8125 3.5039-7.8125 7.8125v43.75c0 4.3086 3.5039 7.8125 7.8125 7.8125h75c4.3086 0 7.8125-3.5039 7.8125-7.8125v-10.938z"/>
</svg>